<?xml version="1.0" encoding="UTF-8"?>
<!DOCTYPE svg PUBLIC "-//W3C//DTD SVG 1.1//EN" "http://www.w3.org/Graphics/SVG/1.1/DTD/svg11.dtd">
<svg version="1.1" xmlns="http://www.w3.org/2000/svg" xmlns:xlink="http://www.w3.org/1999/xlink" x="0px" y="0px" width="85.039" height="85.039" viewBox="0, 0, 85.039, 85.039">
  <g id="Layer 1">
    <g>
      <g>
        <g>
          <path d="M43.51,28.626 C45.41,35.157 39.215,36.263 43.843,43.17" fill-opacity="0" stroke="#CEBF43" stroke-width="0.5" stroke-linecap="round"/>
          <path d="M42.51,28.881 C44.41,35.412 38.215,36.518 42.843,43.425" fill-opacity="0" stroke="#CEBF43" stroke-width="0.5" stroke-linecap="round"/>
          <path d="M39.757,26.918 C39.757,25.708 40.677,24.728 41.813,24.728 C42.948,24.728 43.868,25.708 43.868,26.918 C43.868,28.127 42.948,29.107 41.813,29.107 C40.677,29.107 39.757,28.127 39.757,26.918 z" fill="#20C5B4"/>
        </g>
        <g>
          <path d="M41.115,59.715 C39.215,53.184 45.41,52.079 40.782,45.172" fill-opacity="0" stroke="#CEBF43" stroke-width="0.5" stroke-linecap="round"/>
          <path d="M42.115,59.461 C40.215,52.93 46.41,51.824 41.782,44.917" fill-opacity="0" stroke="#CEBF43" stroke-width="0.5" stroke-linecap="round"/>
          <path d="M43.868,60.424 C43.868,61.633 42.948,62.613 41.813,62.613 C40.677,62.613 39.757,61.633 39.757,60.424 C39.757,59.215 40.677,58.234 41.813,58.234 C42.948,58.234 43.868,59.215 43.868,60.424 z" fill="#20C5B4"/>
        </g>
      </g>
      <g>
        <g>
          <path d="M39.403,28.626 C41.302,35.157 35.108,36.263 39.735,43.17" fill-opacity="0" stroke="#CEBF43" stroke-width="0.5" stroke-linecap="round"/>
          <path d="M38.403,28.881 C40.302,35.412 34.108,36.518 38.735,43.425" fill-opacity="0" stroke="#CEBF43" stroke-width="0.5" stroke-linecap="round"/>
          <path d="M35.65,26.918 C35.65,25.708 36.57,24.728 37.705,24.728 C38.84,24.728 39.76,25.708 39.76,26.918 C39.76,28.127 38.84,29.107 37.705,29.107 C36.57,29.107 35.65,28.127 35.65,26.918 z" fill="#20C5B4"/>
        </g>
        <g>
          <path d="M37.007,59.715 C35.108,53.184 41.302,52.079 36.675,45.172" fill-opacity="0" stroke="#CEBF43" stroke-width="0.5" stroke-linecap="round"/>
          <path d="M38.007,59.461 C36.108,52.93 42.302,51.824 37.675,44.917" fill-opacity="0" stroke="#CEBF43" stroke-width="0.5" stroke-linecap="round"/>
          <path d="M39.76,60.424 C39.76,61.633 38.84,62.613 37.705,62.613 C36.57,62.613 35.65,61.633 35.65,60.424 C35.65,59.215 36.57,58.234 37.705,58.234 C38.84,58.234 39.76,59.215 39.76,60.424 z" fill="#20C5B4"/>
        </g>
      </g>
      <g>
        <g>
          <path d="M35.307,28.626 C37.206,35.157 31.012,36.263 35.639,43.17" fill-opacity="0" stroke="#CEBF43" stroke-width="0.5" stroke-linecap="round"/>
          <path d="M34.307,28.881 C36.206,35.412 30.012,36.518 34.639,43.425" fill-opacity="0" stroke="#CEBF43" stroke-width="0.5" stroke-linecap="round"/>
          <path d="M31.554,26.918 C31.554,25.708 32.474,24.728 33.609,24.728 C34.744,24.728 35.664,25.708 35.664,26.918 C35.664,28.127 34.744,29.107 33.609,29.107 C32.474,29.107 31.554,28.127 31.554,26.918 z" fill="#20C5B4"/>
        </g>
        <g>
          <path d="M32.911,59.715 C31.012,53.184 37.206,52.079 32.579,45.172" fill-opacity="0" stroke="#CEBF43" stroke-width="0.5" stroke-linecap="round"/>
          <path d="M33.911,59.461 C32.012,52.93 38.206,51.824 33.579,44.917" fill-opacity="0" stroke="#CEBF43" stroke-width="0.5" stroke-linecap="round"/>
          <path d="M35.664,60.424 C35.664,61.633 34.744,62.613 33.609,62.613 C32.474,62.613 31.554,61.633 31.554,60.424 C31.554,59.215 32.474,58.234 33.609,58.234 C34.744,58.234 35.664,59.215 35.664,60.424 z" fill="#20C5B4"/>
        </g>
      </g>
      <g>
        <g>
          <path d="M31.199,28.626 C33.099,35.157 26.904,36.263 31.532,43.17" fill-opacity="0" stroke="#CEBF43" stroke-width="0.5" stroke-linecap="round"/>
          <path d="M30.199,28.881 C32.099,35.412 25.904,36.518 30.532,43.425" fill-opacity="0" stroke="#CEBF43" stroke-width="0.5" stroke-linecap="round"/>
          <path d="M27.446,26.918 C27.446,25.708 28.366,24.728 29.501,24.728 C30.636,24.728 31.557,25.708 31.557,26.918 C31.557,28.127 30.636,29.107 29.501,29.107 C28.366,29.107 27.446,28.127 27.446,26.918 z" fill="#20C5B4"/>
        </g>
        <g>
          <path d="M28.804,59.715 C26.904,53.184 33.099,52.079 28.471,45.172" fill-opacity="0" stroke="#CEBF43" stroke-width="0.5" stroke-linecap="round"/>
          <path d="M29.804,59.461 C27.904,52.93 34.099,51.824 29.471,44.917" fill-opacity="0" stroke="#CEBF43" stroke-width="0.5" stroke-linecap="round"/>
          <path d="M31.557,60.424 C31.557,61.633 30.636,62.613 29.501,62.613 C28.366,62.613 27.446,61.633 27.446,60.424 C27.446,59.215 28.366,58.234 29.501,58.234 C30.636,58.234 31.557,59.215 31.557,60.424 z" fill="#20C5B4"/>
        </g>
      </g>
      <g>
        <g>
          <path d="M27.077,28.626 C28.977,35.157 22.782,36.263 27.41,43.17" fill-opacity="0" stroke="#CEBF43" stroke-width="0.5" stroke-linecap="round"/>
          <path d="M26.077,28.881 C27.977,35.412 21.782,36.518 26.41,43.425" fill-opacity="0" stroke="#CEBF43" stroke-width="0.5" stroke-linecap="round"/>
          <path d="M23.324,26.918 C23.324,25.708 24.245,24.728 25.38,24.728 C26.515,24.728 27.435,25.708 27.435,26.918 C27.435,28.127 26.515,29.107 25.38,29.107 C24.245,29.107 23.324,28.127 23.324,26.918 z" fill="#20C5B4"/>
        </g>
        <g>
          <path d="M24.682,59.715 C22.782,53.184 28.977,52.079 24.349,45.172" fill-opacity="0" stroke="#CEBF43" stroke-width="0.5" stroke-linecap="round"/>
          <path d="M25.682,59.461 C23.782,52.93 29.977,51.824 25.349,44.917" fill-opacity="0" stroke="#CEBF43" stroke-width="0.5" stroke-linecap="round"/>
          <path d="M27.435,60.424 C27.435,61.633 26.515,62.613 25.38,62.613 C24.245,62.613 23.324,61.633 23.324,60.424 C23.324,59.215 24.245,58.234 25.38,58.234 C26.515,58.234 27.435,59.215 27.435,60.424 z" fill="#20C5B4"/>
        </g>
      </g>
      <g>
        <g>
          <path d="M22.97,28.626 C24.869,35.157 18.675,36.263 23.303,43.17" fill-opacity="0" stroke="#CEBF43" stroke-width="0.5" stroke-linecap="round"/>
          <path d="M21.97,28.881 C23.869,35.412 17.675,36.518 22.303,43.425" fill-opacity="0" stroke="#CEBF43" stroke-width="0.5" stroke-linecap="round"/>
          <path d="M19.217,26.918 C19.217,25.708 20.137,24.728 21.272,24.728 C22.407,24.728 23.327,25.708 23.327,26.918 C23.327,28.127 22.407,29.107 21.272,29.107 C20.137,29.107 19.217,28.127 19.217,26.918 z" fill="#20C5B4"/>
        </g>
        <g>
          <path d="M20.574,59.715 C18.675,53.184 24.869,52.079 20.242,45.172" fill-opacity="0" stroke="#CEBF43" stroke-width="0.5" stroke-linecap="round"/>
          <path d="M21.574,59.461 C19.675,52.93 25.869,51.824 21.242,44.917" fill-opacity="0" stroke="#CEBF43" stroke-width="0.5" stroke-linecap="round"/>
          <path d="M23.327,60.424 C23.327,61.633 22.407,62.613 21.272,62.613 C20.137,62.613 19.217,61.633 19.217,60.424 C19.217,59.215 20.137,58.234 21.272,58.234 C22.407,58.234 23.327,59.215 23.327,60.424 z" fill="#20C5B4"/>
        </g>
      </g>
      <g>
        <g>
          <path d="M18.874,28.626 C20.773,35.157 14.579,36.263 19.206,43.17" fill-opacity="0" stroke="#CEBF43" stroke-width="0.5" stroke-linecap="round"/>
          <path d="M17.874,28.881 C19.773,35.412 13.579,36.518 18.206,43.425" fill-opacity="0" stroke="#CEBF43" stroke-width="0.5" stroke-linecap="round"/>
          <path d="M15.121,26.918 C15.121,25.708 16.041,24.728 17.176,24.728 C18.311,24.728 19.231,25.708 19.231,26.918 C19.231,28.127 18.311,29.107 17.176,29.107 C16.041,29.107 15.121,28.127 15.121,26.918 z" fill="#20C5B4"/>
        </g>
        <g>
          <path d="M16.478,59.715 C14.579,53.184 20.773,52.079 16.146,45.172" fill-opacity="0" stroke="#CEBF43" stroke-width="0.5" stroke-linecap="round"/>
          <path d="M17.478,59.461 C15.579,52.93 21.773,51.824 17.146,44.917" fill-opacity="0" stroke="#CEBF43" stroke-width="0.5" stroke-linecap="round"/>
          <path d="M19.231,60.424 C19.231,61.633 18.311,62.613 17.176,62.613 C16.041,62.613 15.121,61.633 15.121,60.424 C15.121,59.215 16.041,58.234 17.176,58.234 C18.311,58.234 19.231,59.215 19.231,60.424 z" fill="#20C5B4"/>
        </g>
      </g>
      <g>
        <g>
          <path d="M14.766,28.626 C16.666,35.157 10.471,36.263 15.099,43.17" fill-opacity="0" stroke="#CEBF43" stroke-width="0.5" stroke-linecap="round"/>
          <path d="M13.766,28.881 C15.666,35.412 9.471,36.518 14.099,43.425" fill-opacity="0" stroke="#CEBF43" stroke-width="0.5" stroke-linecap="round"/>
          <path d="M11.013,26.918 C11.013,25.708 11.933,24.728 13.069,24.728 C14.204,24.728 15.124,25.708 15.124,26.918 C15.124,28.127 14.204,29.107 13.069,29.107 C11.933,29.107 11.013,28.127 11.013,26.918 z" fill="#20C5B4"/>
        </g>
        <g>
          <path d="M12.371,59.715 C10.471,53.184 16.666,52.079 12.038,45.172" fill-opacity="0" stroke="#CEBF43" stroke-width="0.5" stroke-linecap="round"/>
          <path d="M13.371,59.461 C11.471,52.93 17.666,51.824 13.038,44.917" fill-opacity="0" stroke="#CEBF43" stroke-width="0.5" stroke-linecap="round"/>
          <path d="M15.124,60.424 C15.124,61.633 14.204,62.613 13.069,62.613 C11.933,62.613 11.013,61.633 11.013,60.424 C11.013,59.215 11.933,58.234 13.069,58.234 C14.204,58.234 15.124,59.215 15.124,60.424 z" fill="#20C5B4"/>
        </g>
      </g>
      <g>
        <g>
          <path d="M76.369,28.692 C78.268,35.223 72.074,36.328 76.701,43.235" fill-opacity="0" stroke="#CEBF43" stroke-width="0.5" stroke-linecap="round"/>
          <path d="M75.369,28.946 C77.268,35.477 71.074,36.583 75.701,43.49" fill-opacity="0" stroke="#CEBF43" stroke-width="0.5" stroke-linecap="round"/>
          <path d="M72.616,26.983 C72.616,25.774 73.536,24.794 74.671,24.794 C75.806,24.794 76.726,25.774 76.726,26.983 C76.726,28.192 75.806,29.173 74.671,29.173 C73.536,29.173 72.616,28.192 72.616,26.983 z" fill="#20C5B4"/>
        </g>
        <g>
          <path d="M73.973,59.781 C72.074,53.25 78.268,52.144 73.64,45.237" fill-opacity="0" stroke="#CEBF43" stroke-width="0.5" stroke-linecap="round"/>
          <path d="M74.973,59.526 C73.074,52.995 79.268,51.889 74.64,44.982" fill-opacity="0" stroke="#CEBF43" stroke-width="0.5" stroke-linecap="round"/>
          <path d="M76.726,60.489 C76.726,61.699 75.806,62.679 74.671,62.679 C73.536,62.679 72.616,61.699 72.616,60.489 C72.616,59.28 73.536,58.3 74.671,58.3 C75.806,58.3 76.726,59.28 76.726,60.489 z" fill="#20C5B4"/>
        </g>
      </g>
      <g>
        <g>
          <path d="M72.261,28.692 C74.161,35.223 67.966,36.328 72.594,43.235" fill-opacity="0" stroke="#CEBF43" stroke-width="0.5" stroke-linecap="round"/>
          <path d="M71.261,28.946 C73.161,35.477 66.966,36.583 71.594,43.49" fill-opacity="0" stroke="#CEBF43" stroke-width="0.5" stroke-linecap="round"/>
          <path d="M68.508,26.983 C68.508,25.774 69.428,24.794 70.563,24.794 C71.698,24.794 72.619,25.774 72.619,26.983 C72.619,28.192 71.698,29.173 70.563,29.173 C69.428,29.173 68.508,28.192 68.508,26.983 z" fill="#20C5B4"/>
        </g>
        <g>
          <path d="M69.866,59.781 C67.966,53.25 74.161,52.144 69.533,45.237" fill-opacity="0" stroke="#CEBF43" stroke-width="0.5" stroke-linecap="round"/>
          <path d="M70.866,59.526 C68.966,52.995 75.161,51.889 70.533,44.982" fill-opacity="0" stroke="#CEBF43" stroke-width="0.5" stroke-linecap="round"/>
          <path d="M72.619,60.489 C72.619,61.699 71.698,62.679 70.563,62.679 C69.428,62.679 68.508,61.699 68.508,60.489 C68.508,59.28 69.428,58.3 70.563,58.3 C71.698,58.3 72.619,59.28 72.619,60.489 z" fill="#20C5B4"/>
        </g>
      </g>
      <g>
        <g>
          <path d="M68.165,28.692 C70.065,35.223 63.87,36.328 68.498,43.235" fill-opacity="0" stroke="#CEBF43" stroke-width="0.5" stroke-linecap="round"/>
          <path d="M67.165,28.946 C69.065,35.477 62.87,36.583 67.498,43.49" fill-opacity="0" stroke="#CEBF43" stroke-width="0.5" stroke-linecap="round"/>
          <path d="M64.412,26.983 C64.412,25.774 65.332,24.794 66.467,24.794 C67.602,24.794 68.523,25.774 68.523,26.983 C68.523,28.192 67.602,29.173 66.467,29.173 C65.332,29.173 64.412,28.192 64.412,26.983 z" fill="#20C5B4"/>
        </g>
        <g>
          <path d="M65.77,59.781 C63.87,53.25 70.065,52.144 65.437,45.237" fill-opacity="0" stroke="#CEBF43" stroke-width="0.5" stroke-linecap="round"/>
          <path d="M66.77,59.526 C64.87,52.995 71.065,51.889 66.437,44.982" fill-opacity="0" stroke="#CEBF43" stroke-width="0.5" stroke-linecap="round"/>
          <path d="M68.523,60.489 C68.523,61.699 67.602,62.679 66.467,62.679 C65.332,62.679 64.412,61.699 64.412,60.489 C64.412,59.28 65.332,58.3 66.467,58.3 C67.602,58.3 68.523,59.28 68.523,60.489 z" fill="#20C5B4"/>
        </g>
      </g>
      <g>
        <g>
          <path d="M64.057,28.692 C65.957,35.223 59.762,36.328 64.39,43.235" fill-opacity="0" stroke="#CEBF43" stroke-width="0.5" stroke-linecap="round"/>
          <path d="M63.057,28.946 C64.957,35.477 58.762,36.583 63.39,43.49" fill-opacity="0" stroke="#CEBF43" stroke-width="0.5" stroke-linecap="round"/>
          <path d="M60.304,26.983 C60.304,25.774 61.225,24.794 62.36,24.794 C63.495,24.794 64.415,25.774 64.415,26.983 C64.415,28.192 63.495,29.173 62.36,29.173 C61.225,29.173 60.304,28.192 60.304,26.983 z" fill="#20C5B4"/>
        </g>
        <g>
          <path d="M61.662,59.781 C59.762,53.25 65.957,52.144 61.329,45.237" fill-opacity="0" stroke="#CEBF43" stroke-width="0.5" stroke-linecap="round"/>
          <path d="M62.662,59.526 C60.762,52.995 66.957,51.889 62.329,44.982" fill-opacity="0" stroke="#CEBF43" stroke-width="0.5" stroke-linecap="round"/>
          <path d="M64.415,60.489 C64.415,61.699 63.495,62.679 62.36,62.679 C61.225,62.679 60.304,61.699 60.304,60.489 C60.304,59.28 61.225,58.3 62.36,58.3 C63.495,58.3 64.415,59.28 64.415,60.489 z" fill="#20C5B4"/>
        </g>
      </g>
      <g>
        <g>
          <path d="M59.936,28.692 C61.835,35.223 55.641,36.328 60.268,43.235" fill-opacity="0" stroke="#CEBF43" stroke-width="0.5" stroke-linecap="round"/>
          <path d="M58.936,28.946 C60.835,35.477 54.641,36.583 59.268,43.49" fill-opacity="0" stroke="#CEBF43" stroke-width="0.5" stroke-linecap="round"/>
          <path d="M56.183,26.983 C56.183,25.774 57.103,24.794 58.238,24.794 C59.373,24.794 60.293,25.774 60.293,26.983 C60.293,28.192 59.373,29.173 58.238,29.173 C57.103,29.173 56.183,28.192 56.183,26.983 z" fill="#20C5B4"/>
        </g>
        <g>
          <path d="M57.54,59.781 C55.641,53.25 61.835,52.144 57.208,45.237" fill-opacity="0" stroke="#CEBF43" stroke-width="0.5" stroke-linecap="round"/>
          <path d="M58.54,59.526 C56.641,52.995 62.835,51.889 58.208,44.982" fill-opacity="0" stroke="#CEBF43" stroke-width="0.5" stroke-linecap="round"/>
          <path d="M60.293,60.489 C60.293,61.699 59.373,62.679 58.238,62.679 C57.103,62.679 56.183,61.699 56.183,60.489 C56.183,59.28 57.103,58.3 58.238,58.3 C59.373,58.3 60.293,59.28 60.293,60.489 z" fill="#20C5B4"/>
        </g>
      </g>
      <g>
        <g>
          <path d="M55.828,28.692 C57.728,35.223 51.533,36.328 56.161,43.235" fill-opacity="0" stroke="#CEBF43" stroke-width="0.5" stroke-linecap="round"/>
          <path d="M54.828,28.946 C56.728,35.477 50.533,36.583 55.161,43.49" fill-opacity="0" stroke="#CEBF43" stroke-width="0.5" stroke-linecap="round"/>
          <path d="M52.075,26.983 C52.075,25.774 52.995,24.794 54.13,24.794 C55.266,24.794 56.186,25.774 56.186,26.983 C56.186,28.192 55.266,29.173 54.13,29.173 C52.995,29.173 52.075,28.192 52.075,26.983 z" fill="#20C5B4"/>
        </g>
        <g>
          <path d="M53.433,59.781 C51.533,53.25 57.728,52.144 53.1,45.237" fill-opacity="0" stroke="#CEBF43" stroke-width="0.5" stroke-linecap="round"/>
          <path d="M54.433,59.526 C52.533,52.995 58.728,51.889 54.1,44.982" fill-opacity="0" stroke="#CEBF43" stroke-width="0.5" stroke-linecap="round"/>
          <path d="M56.186,60.489 C56.186,61.699 55.266,62.679 54.13,62.679 C52.995,62.679 52.075,61.699 52.075,60.489 C52.075,59.28 52.995,58.3 54.13,58.3 C55.266,58.3 56.186,59.28 56.186,60.489 z" fill="#20C5B4"/>
        </g>
      </g>
      <g>
        <g>
          <path d="M51.732,28.692 C53.632,35.223 47.437,36.328 52.065,43.235" fill-opacity="0" stroke="#CEBF43" stroke-width="0.5" stroke-linecap="round"/>
          <path d="M50.732,28.946 C52.632,35.477 46.437,36.583 51.065,43.49" fill-opacity="0" stroke="#CEBF43" stroke-width="0.5" stroke-linecap="round"/>
          <path d="M47.979,26.983 C47.979,25.774 48.899,24.794 50.034,24.794 C51.17,24.794 52.09,25.774 52.09,26.983 C52.09,28.192 51.17,29.173 50.034,29.173 C48.899,29.173 47.979,28.192 47.979,26.983 z" fill="#20C5B4"/>
        </g>
        <g>
          <path d="M49.337,59.781 C47.437,53.25 53.632,52.144 49.004,45.237" fill-opacity="0" stroke="#CEBF43" stroke-width="0.5" stroke-linecap="round"/>
          <path d="M50.337,59.526 C48.437,52.995 54.632,51.889 50.004,44.982" fill-opacity="0" stroke="#CEBF43" stroke-width="0.5" stroke-linecap="round"/>
          <path d="M52.09,60.489 C52.09,61.699 51.17,62.679 50.034,62.679 C48.899,62.679 47.979,61.699 47.979,60.489 C47.979,59.28 48.899,58.3 50.034,58.3 C51.17,58.3 52.09,59.28 52.09,60.489 z" fill="#20C5B4"/>
        </g>
      </g>
      <g>
        <g>
          <path d="M47.625,28.692 C49.524,35.223 43.33,36.328 47.957,43.235" fill-opacity="0" stroke="#CEBF43" stroke-width="0.5" stroke-linecap="round"/>
          <path d="M46.625,28.946 C48.524,35.477 42.33,36.583 46.957,43.49" fill-opacity="0" stroke="#CEBF43" stroke-width="0.5" stroke-linecap="round"/>
          <path d="M43.872,26.983 C43.872,25.774 44.792,24.794 45.927,24.794 C47.062,24.794 47.982,25.774 47.982,26.983 C47.982,28.192 47.062,29.173 45.927,29.173 C44.792,29.173 43.872,28.192 43.872,26.983 z" fill="#20C5B4"/>
        </g>
        <g>
          <path d="M45.229,59.781 C43.33,53.25 49.524,52.144 44.896,45.237" fill-opacity="0" stroke="#CEBF43" stroke-width="0.5" stroke-linecap="round"/>
          <path d="M46.229,59.526 C44.33,52.995 50.524,51.889 45.896,44.982" fill-opacity="0" stroke="#CEBF43" stroke-width="0.5" stroke-linecap="round"/>
          <path d="M47.982,60.489 C47.982,61.699 47.062,62.679 45.927,62.679 C44.792,62.679 43.872,61.699 43.872,60.489 C43.872,59.28 44.792,58.3 45.927,58.3 C47.062,58.3 47.982,59.28 47.982,60.489 z" fill="#20C5B4"/>
        </g>
      </g>
    </g>
  </g>
  <defs/>
</svg>
